<svg width="61" height="58" viewBox="0 0 61 58" fill="none" xmlns="http://www.w3.org/2000/svg">
<path fill-rule="evenodd" clip-rule="evenodd" d="M25.1711 0.019539C25.0357 -0.28403 24.4396 3.00004 19.9147 6.36689C15.3357 9.70615 18.8309 14.6185 18.7767 14.4253C18.7225 14.2873 18.9664 10.6721 23.2745 8.2435C27.3387 4.76626 25.9298 1.64777 25.1711 0.019539ZM27.3658 0.875054C29.4792 1.95134 36.0091 8.07792 30.7527 12.7142C25.6318 16.909 26.9594 22.1801 26.5801 22.6768C26.1736 23.1736 18.7496 14.2873 24.2499 9.56817C29.6689 4.84905 26.553 0.488693 27.3658 0.875054ZM33.8686 5.62177C36.9845 7.25 43.5415 15.2532 37.6619 20.3035C33.1641 24.0567 30.3734 27.5891 30.0482 28.693C29.5605 27.12 26.7968 19.4204 31.3488 14.8944C36.5239 9.76135 33.6248 5.48378 33.8686 5.62177ZM20.2128 14.3977C20.267 15.9707 21.0798 18.896 25.0628 23.0356C29.0457 27.1752 26.2278 30.5972 26.2278 30.5972C26.2278 30.5972 25.5505 28.3343 21.4591 25.6021C17.9097 22.6492 20.2128 14.3977 20.2128 14.3977Z" fill="#E2762A"/>
<path fill-rule="evenodd" clip-rule="evenodd" d="M0 50.0534H60.1237L59.9882 49.6118H0.135475L0 50.0534Z" fill="#E2762A"/>
<path fill-rule="evenodd" clip-rule="evenodd" d="M46.7658 41.6637L48.5811 33.2742C50.5591 33.2742 54.8943 32.7222 55.5716 34.654L60.1236 48.287L52.835 48.2318L50.0443 36.4478L47.958 48.287H43.7311L37.418 37.6345L38.4205 48.3422H36.2529L34.8982 33.3845C36.9303 33.3845 39.3689 33.3018 41.3468 33.3018L46.7658 41.6637Z" fill="#E2762A"/>
<path fill-rule="evenodd" clip-rule="evenodd" d="M31.3218 33.1914L32.1888 48.2871H24.3584L24.9545 33.219L31.3218 33.1914Z" fill="#E2762A"/>
<path fill-rule="evenodd" clip-rule="evenodd" d="M13.1681 48.3148C12.843 44.3684 15.119 41.2499 11.8676 40.8911C11.1089 40.7531 10.2961 40.6979 9.53743 40.6152L8.1014 48.3148H0.948333C0.812858 48.3148 0.596098 48.2596 0.460623 48.232C0.325149 48.1768 0.189675 48.094 0.135485 47.9008C0.081295 47.818 0.0541992 47.6248 0.0541992 47.4869L4.52486 34.4886C5.12095 32.8327 10.5128 33.1915 13.412 33.1639C16.0673 33.1639 18.3704 33.3571 19.8606 34.1298C21.2695 34.8749 21.7031 35.8684 21.676 36.9723C21.676 37.3863 21.5947 37.8554 21.3237 38.2142C21.0528 38.573 20.7276 38.9041 20.3212 39.0973C19.3729 39.5941 18.8852 39.7872 16.0944 40.2012C18.831 40.6979 19.3729 40.8911 19.8335 41.5811C20.7818 43.0161 19.698 46.3554 20.7005 48.3148H13.1681ZM10.8651 34.599C10.8109 34.599 10.8109 34.599 10.8651 34.599C10.5399 35.4821 9.86257 38.9041 9.72709 39.4285C9.72709 39.4837 9.78128 39.4837 9.80838 39.4837C10.7567 39.5389 12.1927 39.5389 12.9243 39.3457C15.3899 38.6558 15.4983 36.448 14.6855 35.3441C14.1165 34.3782 11.7321 34.461 10.8651 34.599Z" fill="#E2762A"/>
<path fill-rule="evenodd" clip-rule="evenodd" d="M7.966 52.8683H1.95092V56.2627H7.966V55.1036H4.85008V54.1653H9.83555V56.0971C9.83555 56.2627 9.83555 56.5111 9.75427 56.6215C9.67298 56.7871 9.5917 56.9802 9.40203 57.063C9.10399 57.2286 8.56209 57.339 7.77634 57.339H2.0864C1.30065 57.339 0.758747 57.2562 0.460703 57.063C0.325228 56.9802 0.162658 56.7871 0.108468 56.6215C0.0271832 56.4559 0.0271844 56.2627 0.0271844 56.0971V53.227C-0.0270055 53.0614 0.0271832 52.8131 0.108468 52.7027C0.189753 52.5371 0.271039 52.3439 0.460703 52.2611C0.758747 52.0955 1.30065 51.9852 2.0864 51.9852H7.77634C8.56209 51.9852 9.10399 52.0679 9.40203 52.2611C9.53751 52.3439 9.67298 52.5371 9.75427 52.6751C9.83555 52.8131 9.83555 53.0338 9.83555 53.1994V53.3374L7.93891 53.503V52.8683H7.966ZM19.3459 52.8131H14.9565V54.3309H19.3459C19.6168 54.3309 19.7794 54.3309 20.0503 54.2481C20.1045 54.1929 20.1316 54.1653 20.1858 54.1101C20.24 54.0549 20.24 53.9722 20.24 53.9446V53.2822C20.24 53.227 20.24 53.1442 20.1858 53.1166C20.1316 53.089 20.1045 53.0338 20.0503 52.9787C19.7794 52.8131 19.5626 52.8131 19.3459 52.8131ZM13.0328 57.339V51.9024H20.0774C20.5651 51.8472 21.0529 51.9576 21.4864 52.1783C21.6219 52.2611 21.7573 52.3439 21.8386 52.5371C21.9199 52.6751 21.9199 52.8407 21.9199 52.9787V54.2757C21.9199 54.4137 21.8657 54.5793 21.8386 54.7173C21.7573 54.8553 21.676 54.9933 21.4864 55.076C21.0529 55.2416 20.5651 55.3796 20.0774 55.352H18.9936L22.7327 57.3942H19.9691L16.6906 55.352H14.9023V57.3942H13.0599V57.339H13.0328ZM26.8512 56.2627H33.2185V52.8683H26.8512V56.2627ZM25.0087 53.1718C25.0087 53.0062 25.0087 52.7579 25.09 52.6475C25.1442 52.4819 25.2526 52.2887 25.4422 52.2059C25.7403 52.0403 26.2822 51.93 27.0679 51.93H33.083C33.923 51.93 34.4107 52.0127 34.7087 52.2059C34.8442 52.2887 34.9797 52.5095 35.0609 52.6475C35.1151 52.8131 35.1422 53.0062 35.1151 53.1718V56.0419C35.1151 56.2075 35.1151 56.4559 35.0339 56.5663C34.9526 56.7319 34.8713 56.9251 34.6816 57.0078C34.3836 57.1734 33.8417 57.2838 33.0559 57.2838H27.0408C26.2551 57.2838 25.7132 57.201 25.4151 57.0078C25.2797 56.9251 25.1442 56.7043 25.0629 56.5663C25.0087 56.4007 24.9816 56.2075 24.9816 56.0419V53.1718H25.0087ZM40.3174 51.8472V56.3179H45.7635V51.8472H47.6872V55.9867C47.6872 56.1523 47.6872 56.4007 47.6059 56.5111C47.5246 56.6491 47.4433 56.8699 47.2537 56.9526C46.9556 57.1182 46.4137 57.2286 45.628 57.2286H40.3986C39.6129 57.2286 39.071 57.1458 38.773 56.9526C38.6375 56.8699 38.4749 56.6767 38.4207 56.5111C38.3394 56.3455 38.3394 56.0971 38.3394 55.9867V51.8472H40.3174ZM51.2095 57.339V51.9024H58.2542C58.7419 51.8472 59.2296 51.9576 59.6632 52.1783C59.7986 52.2611 59.9341 52.3439 60.0154 52.5371C60.0967 52.6751 60.0967 52.8407 60.0967 52.9787V54.1929C60.0967 54.3309 60.0967 54.4965 60.0154 54.6345C59.9341 54.7725 59.8528 54.9105 59.6632 54.9932C59.2296 55.1588 58.7419 55.2968 58.2542 55.2692H53.0249V57.4218L51.2095 57.339ZM57.4414 52.8131H53.052V54.2481H57.4414C57.7123 54.2481 57.8749 54.2481 58.1458 54.1653C58.2 54.1101 58.2271 54.0825 58.2813 54.0273C58.3355 53.9722 58.3355 53.8894 58.3355 53.8618V53.2822C58.3355 53.227 58.3355 53.1442 58.2813 53.1166C58.2271 53.0614 58.2 53.0338 58.1458 52.9787C57.9562 52.8131 57.7123 52.8131 57.4414 52.8131Z" fill="#E2762A"/>
</svg>
